<?xml version="1.0" encoding="UTF-8"?>
<svg xmlns="http://www.w3.org/2000/svg" xmlns:xlink="http://www.w3.org/1999/xlink" width="50pt" height="50pt" viewBox="0 0 50 50" version="1.1">
<g id="surface1">
<path style=" stroke:none;fill-rule:nonzero;fill:#222222;fill-opacity:1;" d="M 44.519531 10.929688 C 44.261719 10.917969 43.976563 10.933594 43.664063 10.984375 L 24.78125 14.839844 C 25.277344 17.628906 26.828125 26.742188 26.828125 26.742188 L 34.515625 26.773438 C 36.1875 26.773438 37.167969 28.429688 37.496094 30.003906 L 46.636719 30.710938 C 48.21875 30.679688 49.613281 29.773438 49.613281 28.074219 C 49.613281 26.378906 48.4375 24.976563 45.585938 24.851563 L 28.78125 22.820313 C 28.222656 22.742188 27.789063 22.375 27.789063 21.828125 C 27.789063 21.28125 28.316406 20.976563 28.78125 20.832031 L 44.59375 15.863281 C 46.453125 15.335938 46.667969 14.363281 46.667969 13.363281 C 46.667969 12.523438 46.296875 11.015625 44.519531 10.929688 Z M 17.191406 11.003906 C 15.3125 10.882813 13.65625 11.351563 13.453125 11.414063 L 4.71875 13.933594 C 1.484375 14.875 0.0117188 18.410156 0.0117188 21.296875 L 0.0117188 33.71875 C 0.0117188 34 0.0273438 34.289063 0.0585938 34.570313 C 0.0742188 34.734375 0.0976563 34.890625 0.125 35.046875 C 0.140625 35.167969 0.15625 35.289063 0.179688 35.40625 C 0.210938 35.578125 0.25 35.742188 0.292969 35.910156 C 0.320313 36.023438 0.351563 36.136719 0.382813 36.25 C 0.421875 36.378906 0.46875 36.511719 0.511719 36.644531 C 0.570313 36.804688 0.625 36.960938 0.691406 37.121094 C 0.714844 37.183594 0.738281 37.242188 0.765625 37.300781 C 1.945313 40.042969 4.46875 42.269531 8.027344 42.601563 C 8.328125 42.632813 8.628906 42.648438 8.941406 42.648438 L 20.84375 42.648438 C 21.191406 42.648438 21.660156 42.589844 22.195313 42.484375 C 20.28125 41.980469 18.859375 40.253906 18.859375 38.183594 C 18.859375 35.722656 20.863281 33.71875 23.324219 33.71875 L 33.246094 33.71875 C 34.441406 33.742188 35.726563 33.003906 35.726563 31.328125 C 35.726563 29.585938 34.609375 28.757813 33.339844 28.789063 L 26.832031 28.757813 C 26.894531 31.214844 24.722656 33.191406 22.628906 33.691406 C 20.125 34.289063 17.667969 32.882813 16.785156 30.351563 L 15.519531 25.492188 C 14.226563 27.019531 11.855469 29.078125 8.117188 29.730469 C 7.578125 29.824219 7.066406 29.464844 6.972656 28.925781 C 6.964844 28.867188 6.960938 28.808594 6.960938 28.753906 C 6.960938 28.277344 7.296875 27.859375 7.78125 27.777344 C 12.253906 26.996094 14.390625 23.84375 14.882813 23.015625 L 14.820313 22.769531 L 13.035156 23.746094 C 12.554688 24.007813 11.953125 23.832031 11.6875 23.347656 C 11.605469 23.199219 11.566406 23.035156 11.566406 22.875 C 11.566406 22.523438 11.753906 22.1875 12.085938 22.003906 L 14.984375 20.421875 C 15.253906 20.273438 15.761719 20.019531 16.042969 20.140625 C 16.324219 20.261719 16.628906 20.355469 16.847656 20.789063 L 18.800781 29.75 C 19.386719 31.433594 21.03125 31.953125 22.492188 31.703125 C 23.828125 31.476563 24.953125 30.28125 24.78125 28.726563 C 24.777344 28.691406 23.007813 17.128906 23.007813 17.128906 C 22.988281 16.824219 22.664063 11.765625 17.191406 11.003906 Z M 23.324219 35.703125 C 21.953125 35.703125 20.84375 36.8125 20.84375 38.183594 C 20.84375 39.554688 21.953125 40.664063 23.324219 40.664063 L 31.261719 40.664063 C 32.632813 40.664063 33.742188 39.554688 33.742188 38.183594 C 33.742188 36.8125 32.632813 35.703125 31.261719 35.703125 Z "/>
</g>
</svg>
