<?xml version="1.0" encoding="UTF-8"?>
<svg xmlns="http://www.w3.org/2000/svg" xmlns:xlink="http://www.w3.org/1999/xlink" width="50pt" height="50pt" viewBox="0 0 50 50" version="1.1">
<g id="surface1">
<path style=" stroke:none;fill-rule:nonzero;fill:#222222;fill-opacity:1;" d="M 39.21875 6.945313 C 37.511719 6.945313 36.734375 8.121094 36.734375 9.457031 L 36.734375 22.816406 C 36.734375 23.363281 36.292969 23.808594 35.742188 23.808594 C 35.195313 23.808594 34.722656 23.363281 34.722656 22.816406 L 34.722656 4.445313 C 34.742188 3.242188 34 1.984375 32.261719 1.984375 C 30.523438 1.984375 29.777344 3.335938 29.777344 4.472656 L 29.777344 21.835938 C 29.777344 22.386719 29.332031 22.828125 28.785156 22.828125 C 28.238281 22.828125 27.777344 22.386719 27.777344 21.839844 C 27.777344 21.839844 27.777344 21.835938 27.777344 21.835938 L 27.777344 2.488281 C 27.777344 1.484375 27.003906 0 25.308594 0 C 23.613281 0 22.820313 1.484375 22.820313 2.488281 L 22.820313 22.816406 C 22.820313 23.363281 22.375 23.808594 21.828125 23.808594 C 21.28125 23.808594 20.832031 23.363281 20.832031 22.816406 L 20.832031 6.496094 C 20.832031 4.671875 19.347656 4.011719 18.347656 4.011719 C 17.390625 4.011719 15.871094 4.652344 15.871094 6.382813 L 15.871094 32.039063 C 15.835938 32.0625 15.789063 32.070313 15.742188 32.085938 L 15.738281 32.039063 L 10.777344 26.089844 C 9.488281 24.699219 7.304688 24.699219 5.917969 26.089844 C 4.527344 27.378906 4.527344 29.558594 5.917969 30.953125 L 6.027344 31.09375 C 6.0625 31.1875 6.097656 31.28125 6.160156 31.363281 L 14.613281 42.222656 L 17.324219 45.730469 L 17.320313 45.695313 L 17.667969 46.144531 C 17.671875 46.144531 17.671875 46.144531 17.675781 46.148438 C 19.226563 48.203125 21.574219 49.425781 24.171875 49.570313 C 24.296875 49.582031 24.433594 49.589844 24.574219 49.59375 C 24.617188 49.59375 24.660156 49.601563 24.699219 49.601563 C 24.703125 49.601563 24.707031 49.597656 24.714844 49.597656 C 24.742188 49.597656 24.769531 49.601563 24.800781 49.601563 L 32.738281 49.601563 C 37.128906 49.601563 41.667969 46.261719 41.667969 40.675781 C 41.667969 40.675781 41.667969 10.871094 41.667969 9.507813 C 41.667969 8.140625 40.925781 6.945313 39.21875 6.945313 Z "/>
</g>
</svg>
