<?xml version="1.0" encoding="UTF-8"?>
<svg xmlns="http://www.w3.org/2000/svg" xmlns:xlink="http://www.w3.org/1999/xlink" width="50pt" height="50pt" viewBox="0 0 50 50" version="1.1">
<g id="surface1">
<path style=" stroke:none;fill-rule:nonzero;fill:#222222;fill-opacity:1;" d="M 39.683594 13.472656 C 39.683594 13.804688 39.683594 33.730469 39.683594 33.730469 C 39.683594 39.316406 35.144531 42.660156 30.753906 42.660156 C 30.753906 42.660156 22.648438 42.65625 22.613281 42.652344 C 17.132813 42.59375 15.113281 40.203125 13.878906 37.875 L 11.078125 32.363281 C 10.320313 30.589844 9.921875 29.003906 9.921875 27.777344 C 9.921875 23 13.042969 21.367188 13.890625 20.863281 L 13.890625 12.292969 C 13.890625 10.5625 15.40625 9.921875 16.363281 9.921875 C 17.363281 9.921875 18.847656 10.582031 18.847656 12.410156 L 18.847656 15.871094 C 18.847656 16.417969 19.296875 16.863281 19.84375 16.863281 C 20.394531 16.863281 20.835938 16.417969 20.835938 15.871094 L 20.835938 10.425781 C 20.835938 9.421875 21.628906 7.9375 23.324219 7.9375 C 25.019531 7.9375 25.792969 9.421875 25.792969 10.425781 L 25.792969 14.894531 C 25.792969 15.441406 26.253906 15.882813 26.800781 15.882813 C 27.351563 15.882813 27.792969 15.441406 27.792969 14.894531 L 27.792969 11.417969 C 27.792969 10.28125 28.542969 8.929688 30.28125 8.929688 C 32.015625 8.929688 32.761719 10.1875 32.738281 11.390625 L 32.738281 15.871094 C 32.738281 16.417969 33.210938 16.863281 33.757813 16.863281 C 34.308594 16.863281 34.75 16.417969 34.75 15.871094 L 34.75 13.425781 C 34.75 12.089844 35.527344 10.914063 37.238281 10.914063 C 38.941406 10.914063 39.683594 12.109375 39.683594 13.472656 Z "/>
</g>
</svg>
